solid OpenSCAD_Model
  facet normal -0 0 1
    outer loop
      vertex -7.2 0 30.7
      vertex 7.2 -60 30.7
      vertex 7.2 0 30.7
    endloop
  endfacet
  facet normal 0 0 1
    outer loop
      vertex 7.2 -60 30.7
      vertex -7.2 0 30.7
      vertex -7.2 -60 30.7
    endloop
  endfacet
  facet normal -0.707106 0 -0.707107
    outer loop
      vertex -7.2 -60 -0.9
      vertex -15.8 0 7.69999
      vertex -7.2 0 -0.9
    endloop
  endfacet
  facet normal -0.707106 -0 -0.707107
    outer loop
      vertex -15.8 0 7.69999
      vertex -7.2 -60 -0.9
      vertex -15.8 -60 7.69999
    endloop
  endfacet
  facet normal 1 -0 0
    outer loop
      vertex 15.8 -60 22.1
      vertex 15.8 0 7.69999
      vertex 15.8 0 22.1
    endloop
  endfacet
  facet normal 1 0 0
    outer loop
      vertex 15.8 0 7.69999
      vertex 15.8 -60 22.1
      vertex 15.8 -60 7.69999
    endloop
  endfacet
  facet normal 0.707106 0 -0.707107
    outer loop
      vertex 15.8 -60 7.69999
      vertex 7.2 0 -0.9
      vertex 15.8 0 7.69999
    endloop
  endfacet
  facet normal 0.707106 0 -0.707107
    outer loop
      vertex 7.2 0 -0.9
      vertex 15.8 -60 7.69999
      vertex 7.2 -60 -0.9
    endloop
  endfacet
  facet normal 0 -1 0
    outer loop
      vertex -7.2 -60 30.7
      vertex -6.89999 -60 29.5
      vertex 7.2 -60 30.7
    endloop
  endfacet
  facet normal 0 -1 0
    outer loop
      vertex -15.8 -60 22.1
      vertex -6.89999 -60 29.5
      vertex -7.2 -60 30.7
    endloop
  endfacet
  facet normal 0 -1 0
    outer loop
      vertex -15.8 -60 22.1
      vertex -14.9 -60 21.5
      vertex -6.89999 -60 29.5
    endloop
  endfacet
  facet normal 0 -1 0
    outer loop
      vertex -15.8 -60 7.69999
      vertex -14.9 -60 21.5
      vertex -15.8 -60 22.1
    endloop
  endfacet
  facet normal 0 -1 -0
    outer loop
      vertex -14.9 -60 21.5
      vertex -15.8 -60 7.69999
      vertex -14.9 -60 7.7
    endloop
  endfacet
  facet normal 0 -1 0
    outer loop
      vertex -7.2 -60 -0.9
      vertex -14.9 -60 7.7
      vertex -15.8 -60 7.69999
    endloop
  endfacet
  facet normal 0 -1 -0
    outer loop
      vertex -6.89999 -60 -0.300001
      vertex -7.2 -60 -0.9
      vertex 6.89999 -60 -0.300001
    endloop
  endfacet
  facet normal 0 -1 0
    outer loop
      vertex -14.9 -60 7.7
      vertex -7.2 -60 -0.9
      vertex -6.89999 -60 -0.300001
    endloop
  endfacet
  facet normal 0 -1 0
    outer loop
      vertex 6.89999 -60 29.5
      vertex 7.2 -60 30.7
      vertex -6.89999 -60 29.5
    endloop
  endfacet
  facet normal 0 -1 0
    outer loop
      vertex 6.89999 -60 29.5
      vertex 15.8 -60 22.1
      vertex 7.2 -60 30.7
    endloop
  endfacet
  facet normal 0 -1 0
    outer loop
      vertex 14.9 -60 21.5
      vertex 15.8 -60 22.1
      vertex 6.89999 -60 29.5
    endloop
  endfacet
  facet normal 0 -1 0
    outer loop
      vertex 15.8 -60 7.69999
      vertex 14.9 -60 21.5
      vertex 14.9 -60 7.7
    endloop
  endfacet
  facet normal 0 -1 0
    outer loop
      vertex 14.9 -60 21.5
      vertex 15.8 -60 7.69999
      vertex 15.8 -60 22.1
    endloop
  endfacet
  facet normal 0 -1 0
    outer loop
      vertex 7.2 -60 -0.9
      vertex 14.9 -60 7.7
      vertex 6.89999 -60 -0.300001
    endloop
  endfacet
  facet normal 0 -1 -0
    outer loop
      vertex 14.9 -60 7.7
      vertex 7.2 -60 -0.9
      vertex 15.8 -60 7.69999
    endloop
  endfacet
  facet normal 0 -1 0
    outer loop
      vertex 7.2 -60 -0.9
      vertex 6.89999 -60 -0.300001
      vertex -7.2 -60 -0.9
    endloop
  endfacet
  facet normal -1 0 0
    outer loop
      vertex -15.8 -60 7.69999
      vertex -15.8 0 22.1
      vertex -15.8 0 7.69999
    endloop
  endfacet
  facet normal -1 -0 0
    outer loop
      vertex -15.8 0 22.1
      vertex -15.8 -60 7.69999
      vertex -15.8 -60 22.1
    endloop
  endfacet
  facet normal 0 0 -1
    outer loop
      vertex 7.2 -60 -0.9
      vertex 6.89999 -31.5 -0.9
      vertex 7.2 0 -0.9
    endloop
  endfacet
  facet normal 0 0 -1
    outer loop
      vertex 7.2 -60 -0.9
      vertex -6.89999 -31.5 -0.9
      vertex 6.89999 -31.5 -0.9
    endloop
  endfacet
  facet normal -0 0 -1
    outer loop
      vertex -6.89999 -31.5 -0.9
      vertex -7.2 -60 -0.9
      vertex -6.89999 -30.5 -0.9
    endloop
  endfacet
  facet normal 0 0 -1
    outer loop
      vertex -7.2 -60 -0.9
      vertex -6.89999 -31.5 -0.9
      vertex 7.2 -60 -0.9
    endloop
  endfacet
  facet normal 0 0 -1
    outer loop
      vertex 6.89999 -30.5 -0.9
      vertex 7.2 0 -0.9
      vertex 6.89999 -31.5 -0.9
    endloop
  endfacet
  facet normal 0 0 -1
    outer loop
      vertex -6.89999 -30.5 -0.9
      vertex 7.2 0 -0.9
      vertex 6.89999 -30.5 -0.9
    endloop
  endfacet
  facet normal 0 0 -1
    outer loop
      vertex -6.89999 -30.5 -0.9
      vertex -7.2 0 -0.9
      vertex 7.2 0 -0.9
    endloop
  endfacet
  facet normal 0 0 -1
    outer loop
      vertex -7.2 0 -0.9
      vertex -6.89999 -30.5 -0.9
      vertex -7.2 -60 -0.9
    endloop
  endfacet
  facet normal 0.707107 -0 0.707107
    outer loop
      vertex 7.2 -60 30.7
      vertex 15.8 0 22.1
      vertex 7.2 0 30.7
    endloop
  endfacet
  facet normal 0.707107 0 0.707107
    outer loop
      vertex 15.8 0 22.1
      vertex 7.2 -60 30.7
      vertex 15.8 -60 22.1
    endloop
  endfacet
  facet normal -0.707107 0 0.707107
    outer loop
      vertex -15.8 -60 22.1
      vertex -7.2 0 30.7
      vertex -15.8 0 22.1
    endloop
  endfacet
  facet normal -0.707107 0 0.707107
    outer loop
      vertex -7.2 0 30.7
      vertex -15.8 -60 22.1
      vertex -7.2 -60 30.7
    endloop
  endfacet
  facet normal 0 1 0
    outer loop
      vertex 7.2 0 30.7
      vertex 6.89999 0 29.5
      vertex -7.2 0 30.7
    endloop
  endfacet
  facet normal 0 1 0
    outer loop
      vertex 15.8 0 22.1
      vertex 6.89999 0 29.5
      vertex 7.2 0 30.7
    endloop
  endfacet
  facet normal 0 1 0
    outer loop
      vertex 15.8 0 22.1
      vertex 14.9 0 21.5
      vertex 6.89999 0 29.5
    endloop
  endfacet
  facet normal 0 1 -0
    outer loop
      vertex 15.8 0 7.69999
      vertex 14.9 0 21.5
      vertex 15.8 0 22.1
    endloop
  endfacet
  facet normal 0 1 0
    outer loop
      vertex 14.9 0 21.5
      vertex 15.8 0 7.69999
      vertex 14.9 0 7.7
    endloop
  endfacet
  facet normal 0 1 0
    outer loop
      vertex 7.2 0 -0.9
      vertex 14.9 0 7.7
      vertex 15.8 0 7.69999
    endloop
  endfacet
  facet normal 0 1 0
    outer loop
      vertex 6.89999 0 -0.300001
      vertex 7.2 0 -0.9
      vertex -6.89999 0 -0.300001
    endloop
  endfacet
  facet normal 0 1 0
    outer loop
      vertex 14.9 0 7.7
      vertex 7.2 0 -0.9
      vertex 6.89999 0 -0.300001
    endloop
  endfacet
  facet normal 0 1 -0
    outer loop
      vertex -6.89999 0 29.5
      vertex -7.2 0 30.7
      vertex 6.89999 0 29.5
    endloop
  endfacet
  facet normal 0 1 0
    outer loop
      vertex -6.89999 0 29.5
      vertex -15.8 0 22.1
      vertex -7.2 0 30.7
    endloop
  endfacet
  facet normal 0 1 -0
    outer loop
      vertex -14.9 0 21.5
      vertex -15.8 0 22.1
      vertex -6.89999 0 29.5
    endloop
  endfacet
  facet normal 0 1 0
    outer loop
      vertex -15.8 0 7.69999
      vertex -14.9 0 21.5
      vertex -14.9 0 7.7
    endloop
  endfacet
  facet normal 0 1 0
    outer loop
      vertex -14.9 0 21.5
      vertex -15.8 0 7.69999
      vertex -15.8 0 22.1
    endloop
  endfacet
  facet normal 0 1 -0
    outer loop
      vertex -7.2 0 -0.9
      vertex -14.9 0 7.7
      vertex -6.89999 0 -0.300001
    endloop
  endfacet
  facet normal 0 1 0
    outer loop
      vertex -14.9 0 7.7
      vertex -7.2 0 -0.9
      vertex -15.8 0 7.69999
    endloop
  endfacet
  facet normal 0 1 0
    outer loop
      vertex -7.2 0 -0.9
      vertex -6.89999 0 -0.300001
      vertex 7.2 0 -0.9
    endloop
  endfacet
  facet normal -0.707106 0 -0.707107
    outer loop
      vertex 14.9 -30.5 21.5
      vertex 6.89999 0 29.5
      vertex 14.9 0 21.5
    endloop
  endfacet
  facet normal -0.707106 -0 -0.707107
    outer loop
      vertex 6.89999 0 29.5
      vertex 14.9 -30.5 21.5
      vertex 6.89999 -30.5 29.5
    endloop
  endfacet
  facet normal -0.707106 0 -0.707107
    outer loop
      vertex 14.9 -60 21.5
      vertex 6.89999 -31.5 29.5
      vertex 14.9 -31.5 21.5
    endloop
  endfacet
  facet normal -0.707106 -0 -0.707107
    outer loop
      vertex 6.89999 -31.5 29.5
      vertex 14.9 -60 21.5
      vertex 6.89999 -60 29.5
    endloop
  endfacet
  facet normal 0.707106 -0 0.707107
    outer loop
      vertex -14.9 -30.5 7.7
      vertex -6.89999 0 -0.300001
      vertex -14.9 0 7.7
    endloop
  endfacet
  facet normal 0.707106 0 0.707107
    outer loop
      vertex -6.89999 0 -0.300001
      vertex -14.9 -30.5 7.7
      vertex -6.89999 -30.5 -0.300001
    endloop
  endfacet
  facet normal 0.707106 -0 0.707107
    outer loop
      vertex -14.9 -60 7.7
      vertex -6.89999 -31.5 -0.300001
      vertex -14.9 -31.5 7.7
    endloop
  endfacet
  facet normal 0.707106 0 0.707107
    outer loop
      vertex -6.89999 -31.5 -0.300001
      vertex -14.9 -60 7.7
      vertex -6.89999 -60 -0.300001
    endloop
  endfacet
  facet normal -1 0 0
    outer loop
      vertex 14.9 -30.5 7.7
      vertex 14.9 0 21.5
      vertex 14.9 0 7.7
    endloop
  endfacet
  facet normal -1 -0 0
    outer loop
      vertex 14.9 0 21.5
      vertex 14.9 -30.5 7.7
      vertex 14.9 -30.5 21.5
    endloop
  endfacet
  facet normal -1 0 0
    outer loop
      vertex 14.9 -60 7.7
      vertex 14.9 -31.5 21.5
      vertex 14.9 -31.5 7.7
    endloop
  endfacet
  facet normal -1 -0 0
    outer loop
      vertex 14.9 -31.5 21.5
      vertex 14.9 -60 7.7
      vertex 14.9 -60 21.5
    endloop
  endfacet
  facet normal 0.707106 0 -0.707107
    outer loop
      vertex -6.89999 -30.5 29.5
      vertex -14.9 0 21.5
      vertex -6.89999 0 29.5
    endloop
  endfacet
  facet normal 0.707106 0 -0.707107
    outer loop
      vertex -14.9 0 21.5
      vertex -6.89999 -30.5 29.5
      vertex -14.9 -30.5 21.5
    endloop
  endfacet
  facet normal 0.707106 0 -0.707107
    outer loop
      vertex -6.89999 -60 29.5
      vertex -14.9 -31.5 21.5
      vertex -6.89999 -31.5 29.5
    endloop
  endfacet
  facet normal 0.707106 0 -0.707107
    outer loop
      vertex -14.9 -31.5 21.5
      vertex -6.89999 -60 29.5
      vertex -14.9 -60 21.5
    endloop
  endfacet
  facet normal 0 0 -1
    outer loop
      vertex -6.89999 -30.5 29.5
      vertex 6.89999 0 29.5
      vertex 6.89999 -30.5 29.5
    endloop
  endfacet
  facet normal -0 0 -1
    outer loop
      vertex 6.89999 0 29.5
      vertex -6.89999 -30.5 29.5
      vertex -6.89999 0 29.5
    endloop
  endfacet
  facet normal 0 0 -1
    outer loop
      vertex -6.89999 -60 29.5
      vertex 6.89999 -31.5 29.5
      vertex 6.89999 -60 29.5
    endloop
  endfacet
  facet normal -0 0 -1
    outer loop
      vertex 6.89999 -31.5 29.5
      vertex -6.89999 -60 29.5
      vertex -6.89999 -31.5 29.5
    endloop
  endfacet
  facet normal 1 -0 0
    outer loop
      vertex -14.9 -30.5 21.5
      vertex -14.9 0 7.7
      vertex -14.9 0 21.5
    endloop
  endfacet
  facet normal 1 0 0
    outer loop
      vertex -14.9 0 7.7
      vertex -14.9 -30.5 21.5
      vertex -14.9 -30.5 7.7
    endloop
  endfacet
  facet normal 1 -0 0
    outer loop
      vertex -14.9 -60 21.5
      vertex -14.9 -31.5 7.7
      vertex -14.9 -31.5 21.5
    endloop
  endfacet
  facet normal 1 0 0
    outer loop
      vertex -14.9 -31.5 7.7
      vertex -14.9 -60 21.5
      vertex -14.9 -60 7.7
    endloop
  endfacet
  facet normal -0 0 1
    outer loop
      vertex -6.89999 0 -0.300001
      vertex 6.89999 -30.5 -0.300001
      vertex 6.89999 0 -0.300001
    endloop
  endfacet
  facet normal 0 0 1
    outer loop
      vertex 6.89999 -30.5 -0.300001
      vertex -6.89999 0 -0.300001
      vertex -6.89999 -30.5 -0.300001
    endloop
  endfacet
  facet normal -0 0 1
    outer loop
      vertex -6.89999 -31.5 -0.300001
      vertex 6.89999 -60 -0.300001
      vertex 6.89999 -31.5 -0.300001
    endloop
  endfacet
  facet normal 0 0 1
    outer loop
      vertex 6.89999 -60 -0.300001
      vertex -6.89999 -31.5 -0.300001
      vertex -6.89999 -60 -0.300001
    endloop
  endfacet
  facet normal -0.707106 0 0.707107
    outer loop
      vertex 6.89999 -30.5 -0.300001
      vertex 14.9 0 7.7
      vertex 6.89999 0 -0.300001
    endloop
  endfacet
  facet normal -0.707106 0 0.707107
    outer loop
      vertex 14.9 0 7.7
      vertex 6.89999 -30.5 -0.300001
      vertex 14.9 -30.5 7.7
    endloop
  endfacet
  facet normal -0.707106 0 0.707107
    outer loop
      vertex 6.89999 -60 -0.300001
      vertex 14.9 -31.5 7.7
      vertex 6.89999 -31.5 -0.300001
    endloop
  endfacet
  facet normal -0.707106 0 0.707107
    outer loop
      vertex 14.9 -31.5 7.7
      vertex 6.89999 -60 -0.300001
      vertex 14.9 -60 7.7
    endloop
  endfacet
  facet normal 1 -0 0
    outer loop
      vertex 6.89999 -31.5 -0.9
      vertex 6.89999 -30.5 -0.900001
      vertex 6.89999 -30.5 -0.9
    endloop
  endfacet
  facet normal 1 0 0
    outer loop
      vertex 6.89999 -30.5 -0.900001
      vertex 6.89999 -31.5 -0.9
      vertex 6.89999 -31.5 -0.900001
    endloop
  endfacet
  facet normal 0 1 -0
    outer loop
      vertex 6.89999 -30.5 -0.900001
      vertex -6.89999 -30.5 -0.9
      vertex 6.89999 -30.5 -0.9
    endloop
  endfacet
  facet normal 0 1 0
    outer loop
      vertex -6.89999 -30.5 -0.9
      vertex 6.89999 -30.5 -0.900001
      vertex -6.89999 -30.5 -0.900001
    endloop
  endfacet
  facet normal 0 1 0
    outer loop
      vertex 6.89999 -30.5 29.5
      vertex 6 -30.5 28.6
      vertex -6.89999 -30.5 29.5
    endloop
  endfacet
  facet normal 0 1 0
    outer loop
      vertex 14.9 -30.5 21.5
      vertex 6 -30.5 28.6
      vertex 6.89999 -30.5 29.5
    endloop
  endfacet
  facet normal 0 1 0
    outer loop
      vertex 14.9 -30.5 21.5
      vertex 14 -30.5 20.6
      vertex 6 -30.5 28.6
    endloop
  endfacet
  facet normal 0 1 0
    outer loop
      vertex 14.9 -30.5 21.5
      vertex 14 -30.5 8.6
      vertex 14 -30.5 20.6
    endloop
  endfacet
  facet normal 0 1 -0
    outer loop
      vertex 14.9 -30.5 7.7
      vertex 14 -30.5 8.6
      vertex 14.9 -30.5 21.5
    endloop
  endfacet
  facet normal 0 1 0
    outer loop
      vertex 14.9 -30.5 7.7
      vertex 6 -30.5 0.599999
      vertex 14 -30.5 8.6
    endloop
  endfacet
  facet normal 0 1 0
    outer loop
      vertex 6 -30.5 0.599999
      vertex 6.89999 -30.5 -0.300001
      vertex -6 -30.5 0.599999
    endloop
  endfacet
  facet normal 0 1 -0
    outer loop
      vertex 6.89999 -30.5 -0.300001
      vertex 6 -30.5 0.599999
      vertex 14.9 -30.5 7.7
    endloop
  endfacet
  facet normal 0 1 -0
    outer loop
      vertex -6 -30.5 28.6
      vertex -6.89999 -30.5 29.5
      vertex 6 -30.5 28.6
    endloop
  endfacet
  facet normal 0 1 0
    outer loop
      vertex -6 -30.5 28.6
      vertex -14.9 -30.5 21.5
      vertex -6.89999 -30.5 29.5
    endloop
  endfacet
  facet normal 0 1 -0
    outer loop
      vertex -14 -30.5 20.6
      vertex -14.9 -30.5 21.5
      vertex -6 -30.5 28.6
    endloop
  endfacet
  facet normal 0 1 -0
    outer loop
      vertex -14 -30.5 8.6
      vertex -14.9 -30.5 21.5
      vertex -14 -30.5 20.6
    endloop
  endfacet
  facet normal 0 1 0
    outer loop
      vertex -14 -30.5 8.6
      vertex -14.9 -30.5 7.7
      vertex -14.9 -30.5 21.5
    endloop
  endfacet
  facet normal 0 1 0
    outer loop
      vertex -6 -30.5 0.599999
      vertex -14.9 -30.5 7.7
      vertex -14 -30.5 8.6
    endloop
  endfacet
  facet normal 0 1 0
    outer loop
      vertex -6 -30.5 0.599999
      vertex -6.89999 -30.5 -0.300001
      vertex -14.9 -30.5 7.7
    endloop
  endfacet
  facet normal 0 1 0
    outer loop
      vertex -6.89999 -30.5 -0.300001
      vertex -6 -30.5 0.599999
      vertex 6.89999 -30.5 -0.300001
    endloop
  endfacet
  facet normal 0 0 -1
    outer loop
      vertex -6.89999 -31.5 -0.900001
      vertex 6.89999 -30.5 -0.900001
      vertex 6.89999 -31.5 -0.900001
    endloop
  endfacet
  facet normal -0 0 -1
    outer loop
      vertex 6.89999 -30.5 -0.900001
      vertex -6.89999 -31.5 -0.900001
      vertex -6.89999 -30.5 -0.900001
    endloop
  endfacet
  facet normal 0 -1 0
    outer loop
      vertex -6.89999 -31.5 -0.900001
      vertex 6.89999 -31.5 -0.9
      vertex -6.89999 -31.5 -0.9
    endloop
  endfacet
  facet normal 0 -1 -0
    outer loop
      vertex 6.89999 -31.5 -0.9
      vertex -6.89999 -31.5 -0.900001
      vertex 6.89999 -31.5 -0.900001
    endloop
  endfacet
  facet normal 0 -1 0
    outer loop
      vertex -6.89999 -31.5 29.5
      vertex -6 -31.5 28.6
      vertex 6.89999 -31.5 29.5
    endloop
  endfacet
  facet normal 0 -1 0
    outer loop
      vertex -14.9 -31.5 21.5
      vertex -6 -31.5 28.6
      vertex -6.89999 -31.5 29.5
    endloop
  endfacet
  facet normal 0 -1 0
    outer loop
      vertex -14.9 -31.5 21.5
      vertex -14 -31.5 20.6
      vertex -6 -31.5 28.6
    endloop
  endfacet
  facet normal 0 -1 0
    outer loop
      vertex -14.9 -31.5 21.5
      vertex -14 -31.5 8.6
      vertex -14 -31.5 20.6
    endloop
  endfacet
  facet normal 0 -1 0
    outer loop
      vertex -14.9 -31.5 7.7
      vertex -14 -31.5 8.6
      vertex -14.9 -31.5 21.5
    endloop
  endfacet
  facet normal 0 -1 0
    outer loop
      vertex -14.9 -31.5 7.7
      vertex -6 -31.5 0.599999
      vertex -14 -31.5 8.6
    endloop
  endfacet
  facet normal 0 -1 -0
    outer loop
      vertex -6 -31.5 0.599999
      vertex -6.89999 -31.5 -0.300001
      vertex 6 -31.5 0.599999
    endloop
  endfacet
  facet normal 0 -1 0
    outer loop
      vertex -6.89999 -31.5 -0.300001
      vertex -6 -31.5 0.599999
      vertex -14.9 -31.5 7.7
    endloop
  endfacet
  facet normal 0 -1 0
    outer loop
      vertex 6 -31.5 28.6
      vertex 6.89999 -31.5 29.5
      vertex -6 -31.5 28.6
    endloop
  endfacet
  facet normal 0 -1 0
    outer loop
      vertex 6 -31.5 28.6
      vertex 14.9 -31.5 21.5
      vertex 6.89999 -31.5 29.5
    endloop
  endfacet
  facet normal 0 -1 0
    outer loop
      vertex 14 -31.5 20.6
      vertex 14.9 -31.5 21.5
      vertex 6 -31.5 28.6
    endloop
  endfacet
  facet normal 0 -1 0
    outer loop
      vertex 14 -31.5 8.6
      vertex 14.9 -31.5 21.5
      vertex 14 -31.5 20.6
    endloop
  endfacet
  facet normal 0 -1 0
    outer loop
      vertex 14 -31.5 8.6
      vertex 14.9 -31.5 7.7
      vertex 14.9 -31.5 21.5
    endloop
  endfacet
  facet normal 0 -1 0
    outer loop
      vertex 6 -31.5 0.599999
      vertex 14.9 -31.5 7.7
      vertex 14 -31.5 8.6
    endloop
  endfacet
  facet normal 0 -1 0
    outer loop
      vertex 6 -31.5 0.599999
      vertex 6.89999 -31.5 -0.300001
      vertex 14.9 -31.5 7.7
    endloop
  endfacet
  facet normal 0 -1 0
    outer loop
      vertex 6.89999 -31.5 -0.300001
      vertex 6 -31.5 0.599999
      vertex -6.89999 -31.5 -0.300001
    endloop
  endfacet
  facet normal -1 0 0
    outer loop
      vertex -6.89999 -31.5 -0.900001
      vertex -6.89999 -30.5 -0.9
      vertex -6.89999 -30.5 -0.900001
    endloop
  endfacet
  facet normal -1 -0 0
    outer loop
      vertex -6.89999 -30.5 -0.9
      vertex -6.89999 -31.5 -0.900001
      vertex -6.89999 -31.5 -0.9
    endloop
  endfacet
  facet normal 0.707107 -0 0.707107
    outer loop
      vertex -14 -31.5 8.6
      vertex -6 -30.5 0.599999
      vertex -14 -30.5 8.6
    endloop
  endfacet
  facet normal 0.707107 0 0.707107
    outer loop
      vertex -6 -30.5 0.599999
      vertex -14 -31.5 8.6
      vertex -6 -31.5 0.599999
    endloop
  endfacet
  facet normal -0.707107 0 -0.707107
    outer loop
      vertex 14 -31.5 20.6
      vertex 6 -30.5 28.6
      vertex 14 -30.5 20.6
    endloop
  endfacet
  facet normal -0.707107 -0 -0.707107
    outer loop
      vertex 6 -30.5 28.6
      vertex 14 -31.5 20.6
      vertex 6 -31.5 28.6
    endloop
  endfacet
  facet normal -1 0 0
    outer loop
      vertex 14 -31.5 8.6
      vertex 14 -30.5 20.6
      vertex 14 -30.5 8.6
    endloop
  endfacet
  facet normal -1 -0 0
    outer loop
      vertex 14 -30.5 20.6
      vertex 14 -31.5 8.6
      vertex 14 -31.5 20.6
    endloop
  endfacet
  facet normal 0 0 -1
    outer loop
      vertex -6 -31.5 28.6
      vertex 6 -30.5 28.6
      vertex 6 -31.5 28.6
    endloop
  endfacet
  facet normal -0 0 -1
    outer loop
      vertex 6 -30.5 28.6
      vertex -6 -31.5 28.6
      vertex -6 -30.5 28.6
    endloop
  endfacet
  facet normal 1 -0 0
    outer loop
      vertex -14 -31.5 20.6
      vertex -14 -30.5 8.6
      vertex -14 -30.5 20.6
    endloop
  endfacet
  facet normal 1 0 0
    outer loop
      vertex -14 -30.5 8.6
      vertex -14 -31.5 20.6
      vertex -14 -31.5 8.6
    endloop
  endfacet
  facet normal -0 0 1
    outer loop
      vertex -6 -30.5 0.599999
      vertex 6 -31.5 0.599999
      vertex 6 -30.5 0.599999
    endloop
  endfacet
  facet normal 0 0 1
    outer loop
      vertex 6 -31.5 0.599999
      vertex -6 -30.5 0.599999
      vertex -6 -31.5 0.599999
    endloop
  endfacet
  facet normal 0.707107 0 -0.707107
    outer loop
      vertex -6 -31.5 28.6
      vertex -14 -30.5 20.6
      vertex -6 -30.5 28.6
    endloop
  endfacet
  facet normal 0.707107 0 -0.707107
    outer loop
      vertex -14 -30.5 20.6
      vertex -6 -31.5 28.6
      vertex -14 -31.5 20.6
    endloop
  endfacet
  facet normal -0.707107 0 0.707107
    outer loop
      vertex 6 -31.5 0.599999
      vertex 14 -30.5 8.6
      vertex 6 -30.5 0.599999
    endloop
  endfacet
  facet normal -0.707107 0 0.707107
    outer loop
      vertex 14 -30.5 8.6
      vertex 6 -31.5 0.599999
      vertex 14 -31.5 8.6
    endloop
  endfacet
endsolid OpenSCAD_Model
